<svg width="233" height="101" viewBox="0 0 233 101" fill="none" xmlns="http://www.w3.org/2000/svg">
<path d="M172.252 97.536C165.084 97.536 158.214 96.5973 151.644 94.72C145.073 92.7573 139.782 90.24 135.772 87.168L142.812 71.552C146.652 74.2827 151.174 76.544 156.38 78.336C161.67 80.0427 167.004 80.896 172.38 80.896C176.476 80.896 179.761 80.512 182.236 79.744C184.796 78.8907 186.673 77.7387 187.868 76.288C189.062 74.8373 189.66 73.1733 189.66 71.296C189.66 68.9067 188.721 67.0293 186.844 65.664C184.966 64.2133 182.492 63.0613 179.42 62.208C176.348 61.2693 172.934 60.416 169.18 59.648C165.51 58.7947 161.798 57.7707 158.044 56.576C154.374 55.3813 151.004 53.8453 147.932 51.968C144.86 50.0907 142.342 47.616 140.38 44.544C138.502 41.472 137.564 37.5467 137.564 32.768C137.564 27.648 138.929 22.9973 141.66 18.816C144.476 14.5493 148.657 11.1787 154.204 8.70399C159.836 6.144 166.876 4.864 175.324 4.864C180.956 4.864 186.502 5.54666 191.964 6.91199C197.425 8.19199 202.246 10.1547 206.428 12.8L200.028 28.544C195.846 26.1547 191.665 24.4053 187.484 23.296C183.302 22.1013 179.206 21.504 175.196 21.504C171.185 21.504 167.9 21.9733 165.34 22.912C162.78 23.8507 160.945 25.088 159.836 26.624C158.726 28.0747 158.172 29.7813 158.172 31.744C158.172 34.048 159.11 35.9253 160.988 37.376C162.865 38.7413 165.34 39.8507 168.412 40.704C171.484 41.5573 174.854 42.4107 178.524 43.264C182.278 44.1173 185.99 45.0987 189.66 46.208C193.414 47.3173 196.828 48.8107 199.9 50.688C202.972 52.5653 205.446 55.04 207.324 58.112C209.286 61.184 210.268 65.0667 210.268 69.76C210.268 74.7947 208.86 79.4027 206.044 83.584C203.228 87.7653 199.004 91.136 193.372 93.696C187.825 96.256 180.785 97.536 172.252 97.536Z" fill="#166AAC"/>
<path d="M110.421 69.576C107.957 69.576 105.765 69.176 103.845 68.376C101.925 67.576 100.405 66.488 99.2851 65.112C98.1651 63.736 97.6051 62.152 97.6051 60.36C97.6051 58.696 97.9731 57.208 98.7091 55.896C99.4451 54.552 100.613 53.304 102.213 52.152C103.813 50.968 105.845 49.816 108.309 48.696C110.101 47.864 111.509 47.128 112.533 46.488C113.557 45.848 114.277 45.24 114.693 44.664C115.109 44.056 115.317 43.448 115.317 42.84C115.317 42.008 115.029 41.336 114.453 40.824C113.909 40.312 113.093 40.056 112.005 40.056C110.853 40.056 109.957 40.344 109.317 40.92C108.677 41.496 108.357 42.232 108.357 43.128C108.357 43.608 108.453 44.088 108.645 44.568C108.837 45.016 109.205 45.544 109.749 46.152C110.293 46.728 111.061 47.48 112.053 48.408L129.765 64.824L125.685 69.576L106.149 51.432C105.029 50.408 104.133 49.448 103.461 48.552C102.789 47.656 102.293 46.776 101.973 45.912C101.685 45.048 101.541 44.152 101.541 43.224C101.541 41.592 101.973 40.152 102.837 38.904C103.701 37.656 104.917 36.696 106.485 36.024C108.053 35.32 109.893 34.968 112.005 34.968C113.957 34.968 115.637 35.288 117.045 35.928C118.485 36.536 119.605 37.416 120.405 38.568C121.237 39.72 121.653 41.096 121.653 42.696C121.653 44.104 121.301 45.4 120.597 46.584C119.893 47.736 118.789 48.824 117.285 49.848C115.813 50.872 113.877 51.912 111.477 52.968C109.845 53.704 108.549 54.424 107.589 55.128C106.661 55.8 105.989 56.488 105.573 57.192C105.157 57.896 104.949 58.68 104.949 59.544C104.949 60.344 105.189 61.064 105.669 61.704C106.181 62.344 106.885 62.84 107.781 63.192C108.677 63.544 109.733 63.72 110.949 63.72C112.901 63.72 114.693 63.272 116.325 62.376C117.957 61.448 119.333 60.088 120.453 58.296C121.605 56.472 122.421 54.264 122.901 51.672L128.901 53.544C128.229 56.808 127.029 59.64 125.301 62.04C123.573 64.44 121.445 66.296 118.917 67.608C116.389 68.92 113.557 69.576 110.421 69.576Z" fill="#FFC427"/>
<path d="M49.754 96L11.098 6.39999H33.498L67.29 85.76H54.106L88.41 6.39999H109.018L70.234 96H49.754Z" fill="#166AAC"/>
</svg>
