<svg width="236" height="43" viewBox="0 0 236 43" fill="none" xmlns="http://www.w3.org/2000/svg">
<path d="M17.4107 41L2.31074 6H11.0607L24.2607 37H19.1107L32.5107 6H40.5607L25.4107 41H17.4107ZM43.3725 41V14.1H51.1725V41H43.3725ZM47.2725 10.35C45.8391 10.35 44.6725 9.93333 43.7725 9.1C42.8725 8.26666 42.4225 7.23333 42.4225 6C42.4225 4.76666 42.8725 3.73333 43.7725 2.9C44.6725 2.06666 45.8391 1.65 47.2725 1.65C48.7058 1.65 49.8725 2.05 50.7725 2.85C51.6725 3.61667 52.1225 4.61667 52.1225 5.85C52.1225 7.15 51.6725 8.23333 50.7725 9.1C49.9058 9.93333 48.7391 10.35 47.2725 10.35ZM64.8615 35.5L65.0615 26L77.6115 14.1H86.9115L74.8615 26.35L70.8115 29.65L64.8615 35.5ZM58.4115 41V3.9H66.2115V41H58.4115ZM78.4615 41L69.3615 29.7L74.2615 23.65L87.9115 41H78.4615ZM103.646 41.4C100.58 41.4 97.8796 40.8 95.5463 39.6C93.2463 38.4 91.463 36.7667 90.1963 34.7C88.9296 32.6 88.2963 30.2167 88.2963 27.55C88.2963 24.85 88.913 22.4667 90.1463 20.4C91.413 18.3 93.1296 16.6667 95.2963 15.5C97.463 14.3 99.913 13.7 102.646 13.7C105.28 13.7 107.646 14.2667 109.746 15.4C111.88 16.5 113.563 18.1 114.796 20.2C116.03 22.2667 116.646 24.75 116.646 27.65C116.646 27.95 116.63 28.3 116.596 28.7C116.563 29.0667 116.53 29.4167 116.496 29.75H94.6463V25.2H112.396L109.396 26.55C109.396 25.15 109.113 23.9333 108.546 22.9C107.98 21.8667 107.196 21.0667 106.196 20.5C105.196 19.9 104.03 19.6 102.696 19.6C101.363 19.6 100.18 19.9 99.1463 20.5C98.1463 21.0667 97.363 21.8833 96.7963 22.95C96.2296 23.9833 95.9463 25.2167 95.9463 26.65V27.85C95.9463 29.3167 96.263 30.6167 96.8963 31.75C97.563 32.85 98.4796 33.7 99.6463 34.3C100.846 34.8667 102.246 35.15 103.846 35.15C105.28 35.15 106.53 34.9333 107.596 34.5C108.696 34.0667 109.696 33.4167 110.596 32.55L114.746 37.05C113.513 38.45 111.963 39.5333 110.096 40.3C108.23 41.0333 106.08 41.4 103.646 41.4Z" fill="#166AAC"/>
<path d="M154.897 41.6C152.097 41.6 149.414 41.2333 146.847 40.5C144.28 39.7333 142.214 38.75 140.647 37.55L143.397 31.45C144.897 32.5167 146.664 33.4 148.697 34.1C150.764 34.7667 152.847 35.1 154.947 35.1C156.547 35.1 157.83 34.95 158.797 34.65C159.797 34.3167 160.53 33.8667 160.997 33.3C161.464 32.7333 161.697 32.0833 161.697 31.35C161.697 30.4167 161.33 29.6833 160.597 29.15C159.864 28.5833 158.897 28.1333 157.697 27.8C156.497 27.4333 155.164 27.1 153.697 26.8C152.264 26.4667 150.814 26.0667 149.347 25.6C147.914 25.1333 146.597 24.5333 145.397 23.8C144.197 23.0667 143.214 22.1 142.447 20.9C141.714 19.7 141.347 18.1667 141.347 16.3C141.347 14.3 141.88 12.4833 142.947 10.85C144.047 9.18333 145.68 7.86666 147.847 6.9C150.047 5.9 152.797 5.4 156.097 5.4C158.297 5.4 160.464 5.66667 162.597 6.2C164.73 6.7 166.614 7.46666 168.247 8.5L165.747 14.65C164.114 13.7167 162.48 13.0333 160.847 12.6C159.214 12.1333 157.614 11.9 156.047 11.9C154.48 11.9 153.197 12.0833 152.197 12.45C151.197 12.8167 150.48 13.3 150.047 13.9C149.614 14.4667 149.397 15.1333 149.397 15.9C149.397 16.8 149.764 17.5333 150.497 18.1C151.23 18.6333 152.197 19.0667 153.397 19.4C154.597 19.7333 155.914 20.0667 157.347 20.4C158.814 20.7333 160.264 21.1167 161.697 21.55C163.164 21.9833 164.497 22.5667 165.697 23.3C166.897 24.0333 167.864 25 168.597 26.2C169.364 27.4 169.747 28.9167 169.747 30.75C169.747 32.7167 169.197 34.5167 168.097 36.15C166.997 37.7833 165.347 39.1 163.147 40.1C160.98 41.1 158.23 41.6 154.897 41.6ZM188.082 41.4C185.015 41.4 182.315 40.8 179.982 39.6C177.682 38.4 175.899 36.7667 174.632 34.7C173.365 32.6 172.732 30.2167 172.732 27.55C172.732 24.85 173.349 22.4667 174.582 20.4C175.849 18.3 177.565 16.6667 179.732 15.5C181.899 14.3 184.349 13.7 187.082 13.7C189.715 13.7 192.082 14.2667 194.182 15.4C196.315 16.5 197.999 18.1 199.232 20.2C200.465 22.2667 201.082 24.75 201.082 27.65C201.082 27.95 201.065 28.3 201.032 28.7C200.999 29.0667 200.965 29.4167 200.932 29.75H179.082V25.2H196.832L193.832 26.55C193.832 25.15 193.549 23.9333 192.982 22.9C192.415 21.8667 191.632 21.0667 190.632 20.5C189.632 19.9 188.465 19.6 187.132 19.6C185.799 19.6 184.615 19.9 183.582 20.5C182.582 21.0667 181.799 21.8833 181.232 22.95C180.665 23.9833 180.382 25.2167 180.382 26.65V27.85C180.382 29.3167 180.699 30.6167 181.332 31.75C181.999 32.85 182.915 33.7 184.082 34.3C185.282 34.8667 186.682 35.15 188.282 35.15C189.715 35.15 190.965 34.9333 192.032 34.5C193.132 34.0667 194.132 33.4167 195.032 32.55L199.182 37.05C197.949 38.45 196.399 39.5333 194.532 40.3C192.665 41.0333 190.515 41.4 188.082 41.4ZM206.275 41V3.9H214.075V41H206.275ZM221.314 41V3.9H229.114V41H221.314Z" fill="#166AAC"/>
<path d="M126.361 41.225C125.398 41.225 124.542 41.0687 123.792 40.7562C123.042 40.4437 122.448 40.0187 122.011 39.4812C121.573 38.9437 121.354 38.325 121.354 37.625C121.354 36.975 121.498 36.3937 121.786 35.8812C122.073 35.3562 122.529 34.8687 123.154 34.4187C123.779 33.9562 124.573 33.5062 125.536 33.0687C126.236 32.7437 126.786 32.4562 127.186 32.2062C127.586 31.9562 127.867 31.7187 128.029 31.4937C128.192 31.2562 128.273 31.0187 128.273 30.7812C128.273 30.4562 128.161 30.1937 127.936 29.9937C127.723 29.7937 127.404 29.6937 126.979 29.6937C126.529 29.6937 126.179 29.8062 125.929 30.0312C125.679 30.2562 125.554 30.5437 125.554 30.8937C125.554 31.0812 125.592 31.2687 125.667 31.4562C125.742 31.6312 125.886 31.8375 126.098 32.075C126.311 32.3 126.611 32.5937 126.998 32.9562L133.917 39.3687L132.323 41.225L124.692 34.1375C124.254 33.7375 123.904 33.3625 123.642 33.0125C123.379 32.6625 123.186 32.3187 123.061 31.9812C122.948 31.6437 122.892 31.2937 122.892 30.9312C122.892 30.2938 123.061 29.7312 123.398 29.2437C123.736 28.7562 124.211 28.3812 124.823 28.1187C125.436 27.8437 126.154 27.7062 126.979 27.7062C127.742 27.7062 128.398 27.8312 128.948 28.0812C129.511 28.3187 129.948 28.6625 130.261 29.1125C130.586 29.5625 130.748 30.1 130.748 30.725C130.748 31.275 130.611 31.7812 130.336 32.2437C130.061 32.6937 129.629 33.1187 129.042 33.5187C128.467 33.9187 127.711 34.325 126.773 34.7375C126.136 35.025 125.629 35.3062 125.254 35.5812C124.892 35.8437 124.629 36.1125 124.467 36.3875C124.304 36.6625 124.223 36.9687 124.223 37.3062C124.223 37.6187 124.317 37.9 124.504 38.15C124.704 38.4 124.979 38.5937 125.329 38.7312C125.679 38.8687 126.092 38.9375 126.567 38.9375C127.329 38.9375 128.029 38.7625 128.667 38.4125C129.304 38.05 129.842 37.5187 130.279 36.8187C130.729 36.1062 131.048 35.2437 131.236 34.2312L133.579 34.9625C133.317 36.2375 132.848 37.3437 132.173 38.2812C131.498 39.2187 130.667 39.9437 129.679 40.4562C128.692 40.9687 127.586 41.225 126.361 41.225Z" fill="#FFC427"/>
<rect x="42" width="11" height="20" fill="white"/>
<path d="M54.7818 14.0582L53.1769 16.8811C52.8623 17.4418 52.2781 17.7352 51.6875 17.6961H50.4035V19L48.7986 16.0662L50.4035 13.1324V14.4363H52.2139L50.7887 11.9263L53.5685 10.2964L54.724 12.3305C55.0579 12.8325 55.1028 13.504 54.7818 14.0582ZM46.6865 6H49.8964C50.5255 6 51.0712 6.37161 51.3344 6.90622L51.9764 8.04062L53.087 7.38867L51.3922 10.2638L48.086 10.3225L49.1966 9.67051L48.2914 8.07322L46.8726 10.5832L44.0864 8.95336L45.242 6.91926C45.5052 6.37813 46.0509 6 46.6865 6ZM44.0158 16.8877L42.4109 14.0647C42.0963 13.5105 42.1412 12.8455 42.4686 12.3435L43.1106 11.2156L42 10.5637L45.2998 10.6158L47.001 13.4975L45.8904 12.8455L44.9852 14.4363H47.8356V17.6961H45.5245C44.9274 17.7417 44.3368 17.4418 44.0158 16.8877Z" fill="#FFC427"/>
</svg>
